Preview_RobotoExtremo-wght_100.00_wdth_100.00_opsz_144.00_GRAD_0.00_XTRA_603.00_XOPQ_96.00_YOPQ_79.00.ufo
<glyph name="zero" format="2">
  <advance width="1134"/>
  <unicode hex="0030"/>
  <outline>
    <contour>
      <point x="104.0" y="512.0" type="qcurve" smooth="yes"/>
      <point x="104.0" y="947.0" type="line" smooth="yes"/>
      <point x="104.0" y="1209.0"/>
      <point x="343.0" y="1476.0"/>
      <point x="566.0" y="1476.0" type="qcurve" smooth="yes"/>
      <point x="789.0" y="1476.0"/>
      <point x="1030.0" y="1209.0"/>
      <point x="1030.0" y="947.0" type="qcurve" smooth="yes"/>
      <point x="1030.0" y="512.0" type="line" smooth="yes"/>
      <point x="1030.0" y="240.0"/>
      <point x="789.0" y="-20.0"/>
      <point x="566.0" y="-20.0" type="qcurve" smooth="yes"/>
      <point x="343.0" y="-20.0"/>
      <point x="104.0" y="240.0"/>
    </contour>
    <contour>
      <point x="113.0" y="525.0" type="line" smooth="yes"/>
      <point x="113.0" y="245.0"/>
      <point x="344.0" y="-10.0"/>
      <point x="566.0" y="-10.0" type="qcurve" smooth="yes"/>
      <point x="788.0" y="-10.0"/>
      <point x="1021.0" y="247.0"/>
      <point x="1021.0" y="525.0" type="qcurve" smooth="yes"/>
      <point x="1021.0" y="934.0" type="line" smooth="yes"/>
      <point x="1021.0" y="1203.0"/>
      <point x="787.0" y="1467.0"/>
      <point x="566.0" y="1467.0" type="qcurve" smooth="yes"/>
      <point x="345.0" y="1467.0"/>
      <point x="113.0" y="1203.0"/>
      <point x="113.0" y="934.0" type="qcurve" smooth="yes"/>
    </contour>
  </outline>
</glyph>
<glyph name="one" format="2">
  <advance width="1134"/>
  <unicode hex="0031"/>
  <outline>
    <contour>
      <point x="610.0" y="0.0" type="line"/>
      <point x="610.0" y="1481.0" type="line"/>
      <point x="163.0" y="1335.0" type="line"/>
      <point x="159.0" y="1345.0" type="line"/>
      <point x="603.0" y="1476.0" type="line"/>
      <point x="620.0" y="1476.0" type="line"/>
      <point x="620.0" y="0.0" type="line"/>
    </contour>
  </outline>
</glyph>
<glyph name="four" format="2">
  <advance width="1134"/>
  <unicode hex="0034"/>
  <outline>
    <contour>
      <point x="877.0" y="0.0" type="line"/>
      <point x="877.0" y="378.0" type="line"/>
      <point x="877.0" y="382.0" type="line"/>
      <point x="877.0" y="1496.0" type="line"/>
      <point x="873.0" y="1496.0" type="line"/>
      <point x="99.0" y="385.0" type="line"/>
      <point x="848.0" y="385.0" type="line"/>
      <point x="871.0" y="385.0" type="line"/>
      <point x="1131.0" y="385.0" type="line"/>
      <point x="1131.0" y="375.0" type="line"/>
      <point x="65.0" y="375.0" type="line"/>
      <point x="65.0" y="388.0" type="line"/>
      <point x="867.0" y="1456.0" type="line"/>
      <point x="887.0" y="1456.0" type="line"/>
      <point x="887.0" y="0.0" type="line"/>
    </contour>
  </outline>
</glyph>
<glyph name="A" format="2">
  <advance width="1330"/>
  <unicode hex="0041"/>
  <anchor x="657.0" y="1432.0" name="top"/>
  <outline>
    <contour>
      <point x="0.0" y="0.0" type="line"/>
      <point x="637.0" y="1473.0" type="line"/>
      <point x="691.0" y="1473.0" type="line"/>
      <point x="1330.0" y="0.0" type="line"/>
      <point x="1309.0" y="0.0" type="line"/>
      <point x="741.0" y="1376.0" type="line" smooth="yes"/>
      <point x="714.0" y="1439.0"/>
      <point x="683.0" y="1498.0"/>
      <point x="665.0" y="1542.0" type="qcurve"/>
      <point x="660.0" y="1542.0" type="line"/>
      <point x="643.0" y="1498.0"/>
      <point x="609.0" y="1430.0"/>
      <point x="585.0" y="1375.0" type="qcurve" smooth="yes"/>
      <point x="18.0" y="0.0" type="line"/>
    </contour>
    <contour>
      <point x="198.0" y="450.0" type="line"/>
      <point x="218.0" y="460.0" type="line"/>
      <point x="1112.0" y="460.0" type="line"/>
      <point x="1131.0" y="450.0" type="line"/>
    </contour>
  </outline>
</glyph>
<glyph name="C" format="2">
  <advance width="1360"/>
  <unicode hex="0043"/>
  <anchor x="738.0" y="0" name="bottom"/>
  <outline>
    <contour>
      <point x="92.0" y="750.0" type="qcurve" smooth="yes"/>
      <point x="92.0" y="722.0" type="line" smooth="yes"/>
      <point x="92.0" y="1139.0"/>
      <point x="439.0" y="1476.0"/>
      <point x="744.0" y="1476.0" type="qcurve" smooth="yes"/>
      <point x="1026.0" y="1476.0"/>
      <point x="1315.0" y="1251.0"/>
      <point x="1335.0" y="1025.0" type="qcurve" smooth="yes"/>
      <point x="1336.0" y="985.0" type="line"/>
      <point x="1326.0" y="985.0" type="line"/>
      <point x="1325.0" y="1019.0" type="line" smooth="yes"/>
      <point x="1313.0" y="1246.0"/>
      <point x="1029.841059602649" y="1467.0"/>
      <point x="743.0" y="1467.0" type="qcurve" smooth="yes"/>
      <point x="440.50877192982455" y="1467.0"/>
      <point x="102.0" y="1137.0"/>
      <point x="102.0" y="740.0" type="qcurve" smooth="yes"/>
      <point x="102.0" y="732.0" type="line" smooth="yes"/>
      <point x="102.0" y="320.985401459854"/>
      <point x="441.50877192982455" y="-10.0"/>
      <point x="739.0" y="-10.0" type="qcurve" smooth="yes"/>
      <point x="1030.841059602649" y="-10.0"/>
      <point x="1326.0" y="221.0"/>
      <point x="1326.0" y="437.0" type="qcurve" smooth="yes"/>
      <point x="1326.0" y="471.0" type="line"/>
      <point x="1336.0" y="471.0" type="line"/>
      <point x="1336.0" y="431.0" type="line" smooth="yes"/>
      <point x="1336.0" y="216.0"/>
      <point x="1029.0" y="-20.0"/>
      <point x="739.0" y="-20.0" type="qcurve" smooth="yes"/>
      <point x="441.0" y="-20.0"/>
      <point x="92.0" y="315.8426966292135"/>
    </contour>
  </outline>
</glyph>
<glyph name="D" format="2">
  <advance width="1371"/>
  <unicode hex="0044"/>
  <outline>
    <contour>
      <point x="150.0" y="0.0" type="line"/>
      <point x="150.0" y="1456.0" type="line"/>
      <point x="558.0" y="1456.0" type="line" smooth="yes"/>
      <point x="895.0" y="1456.0"/>
      <point x="1278.0" y="1037.0"/>
      <point x="1278.0" y="702.0" type="qcurve" smooth="yes"/>
      <point x="1278.0" y="749.0" type="line" smooth="yes"/>
      <point x="1278.0" y="389.42735042735046"/>
      <point x="860.0" y="0.0"/>
      <point x="558.0" y="0.0" type="qcurve" smooth="yes"/>
    </contour>
    <contour>
      <point x="160.0" y="10.0" type="line"/>
      <point x="558.0" y="10.0" type="line" smooth="yes"/>
      <point x="857.993031358885" y="10.0"/>
      <point x="1268.0" y="394.3125"/>
      <point x="1268.0" y="742.0" type="qcurve" smooth="yes"/>
      <point x="1268.0" y="711.0" type="line" smooth="yes"/>
      <point x="1268.0" y="1030.0"/>
      <point x="892.993031358885" y="1446.0"/>
      <point x="558.0" y="1446.0" type="qcurve" smooth="yes"/>
      <point x="160.0" y="1446.0" type="line"/>
    </contour>
  </outline>
</glyph>
<glyph name="K" format="2">
  <advance width="1189"/>
  <unicode hex="004B"/>
  <outline>
    <contour>
      <point x="150.0" y="0.0" type="line"/>
      <point x="150.0" y="1456.0" type="line"/>
      <point x="160.0" y="1456.0" type="line"/>
      <point x="160.0" y="475.0" type="line"/>
      <point x="1135.0" y="1456.0" type="line"/>
      <point x="1176.0" y="1456.0" type="line"/>
      <point x="160.0" y="485.0" type="line"/>
      <point x="160.0" y="0.0" type="line"/>
    </contour>
    <contour>
      <point x="1207.0" y="0.0" type="line"/>
      <point x="517.0" y="851.0" type="line"/>
      <point x="534.0" y="845.0" type="line"/>
      <point x="1245.0" y="0.0" type="line"/>
    </contour>
  </outline>
</glyph>
<glyph name="M" format="2">
  <advance width="1739"/>
  <unicode hex="004D"/>
  <outline>
    <contour>
      <point x="150.0" y="0.0" type="line"/>
      <point x="150.0" y="1456.0" type="line"/>
      <point x="168.0" y="1456.0" type="line"/>
      <point x="838.0" y="-24.0" type="line" smooth="yes"/>
      <point x="845.0" y="-31.0"/>
      <point x="856.0" y="-53.0"/>
      <point x="858.0" y="-57.0" type="qcurve"/>
      <point x="860.0" y="-57.0" type="line"/>
      <point x="862.0" y="-53.0"/>
      <point x="877.0" y="-30.0"/>
      <point x="882.0" y="-24.0" type="qcurve" smooth="yes"/>
      <point x="1569.0" y="1456.0" type="line"/>
      <point x="1589.0" y="1456.0" type="line"/>
      <point x="1589.0" y="0.0" type="line"/>
      <point x="1579.0" y="0.0" type="line"/>
      <point x="1579.0" y="1484.0" type="line" smooth="yes"/>
      <point x="1579.0" y="1489.0"/>
      <point x="1580.0" y="1496.0"/>
      <point x="1580.0" y="1503.0" type="qcurve"/>
      <point x="1580.0" y="1503.0" type="line"/>
      <point x="1576.0" y="1498.0"/>
      <point x="1568.0" y="1491.0"/>
      <point x="1563.0" y="1486.0" type="qcurve" smooth="yes"/>
      <point x="874.0" y="0.0" type="line"/>
      <point x="845.0" y="0.0" type="line"/>
      <point x="175.0" y="1481.0" type="line" smooth="yes"/>
      <point x="171.0" y="1483.0"/>
      <point x="162.0" y="1491.0"/>
      <point x="158.0" y="1498.0" type="qcurve"/>
      <point x="159.0" y="1498.0" type="line"/>
      <point x="159.0" y="1490.0"/>
      <point x="160.0" y="1480.0"/>
      <point x="160.0" y="1478.0" type="qcurve" smooth="yes"/>
      <point x="160.0" y="0.0" type="line"/>
    </contour>
  </outline>
</glyph>
<glyph name="N" format="2">
  <advance width="1390"/>
  <unicode hex="004E"/>
  <anchor x="567.0" y="1432.0" name="top"/>
  <outline>
    <contour>
      <point x="150.0" y="0.0" type="line"/>
      <point x="150.0" y="1456.0" type="line"/>
      <point x="160.0" y="1456.0" type="line"/>
      <point x="1207.0" y="-17.0" type="line" smooth="yes"/>
      <point x="1212.0" y="-18.0"/>
      <point x="1230.0" y="-24.0"/>
      <point x="1232.0" y="-28.0" type="qcurve"/>
      <point x="1233.0" y="-28.0" type="line"/>
      <point x="1233.0" y="-24.0"/>
      <point x="1233.0" y="-20.0"/>
      <point x="1233.0" y="-16.0" type="qcurve" smooth="yes"/>
      <point x="1233.0" y="1456.0" type="line"/>
      <point x="1240.0" y="1456.0" type="line"/>
      <point x="1240.0" y="0.0" type="line"/>
      <point x="1231.0" y="0.0" type="line"/>
      <point x="190.0" y="1469.0" type="line" smooth="yes"/>
      <point x="184.0" y="1472.0"/>
      <point x="166.0" y="1480.0"/>
      <point x="160.0" y="1486.0" type="qcurve"/>
      <point x="159.0" y="1486.0" type="line"/>
      <point x="159.0" y="1480.339"/>
      <point x="157.0" y="1474.0"/>
      <point x="157.0" y="1469.0" type="qcurve" smooth="yes"/>
      <point x="157.0" y="0.0" type="line"/>
    </contour>
  </outline>
</glyph>
<glyph name="O" format="2">
  <advance width="1486"/>
  <unicode hex="004F"/>
  <anchor x="740.0" y="1432.0" name="top"/>
  <outline>
    <contour>
      <point x="92.0" y="750.0" type="qcurve" smooth="yes"/>
      <point x="92.0" y="722.0" type="line" smooth="yes"/>
      <point x="92.0" y="1126.0"/>
      <point x="450.0" y="1476.0"/>
      <point x="743.0" y="1476.0" type="qcurve" smooth="yes"/>
      <point x="1036.0" y="1476.0"/>
      <point x="1394.0" y="1126.0"/>
      <point x="1394.0" y="722.0" type="qcurve" smooth="yes"/>
      <point x="1394.0" y="750.0" type="line" smooth="yes"/>
      <point x="1394.0" y="325.8426966292135"/>
      <point x="1036.0" y="-20.0"/>
      <point x="743.0" y="-20.0" type="qcurve" smooth="yes"/>
      <point x="450.0" y="-20.0"/>
      <point x="92.0" y="325.8426966292135"/>
    </contour>
    <contour>
      <point x="102.0" y="732.0" type="line" smooth="yes"/>
      <point x="102.0" y="330.985401459854"/>
      <point x="450.82889733840307" y="-10.0"/>
      <point x="742.0" y="-10.0" type="qcurve" smooth="yes"/>
      <point x="1036.0779467680609" y="-10.0"/>
      <point x="1384.0" y="329.985401459854"/>
      <point x="1384.0" y="734.0" type="qcurve" smooth="yes"/>
      <point x="1384.0" y="740.0" type="line" smooth="yes"/>
      <point x="1384.0" y="1122.0"/>
      <point x="1035.0779467680609" y="1467.0"/>
      <point x="743.0" y="1467.0" type="qcurve" smooth="yes"/>
      <point x="450.82889733840307" y="1467.0"/>
      <point x="102.0" y="1122.0"/>
      <point x="102.0" y="740.0" type="qcurve" smooth="yes"/>
    </contour>
  </outline>
</glyph>
<glyph name="Q" format="2">
  <advance width="1487"/>
  <unicode hex="0051"/>
  <outline>
    <contour>
      <point x="92.0" y="750.0" type="qcurve" smooth="yes"/>
      <point x="92.0" y="722.0" type="line" smooth="yes"/>
      <point x="92.0" y="1126.0"/>
      <point x="450.0" y="1476.0"/>
      <point x="743.0" y="1476.0" type="qcurve" smooth="yes"/>
      <point x="1036.0" y="1476.0"/>
      <point x="1394.0" y="1126.0"/>
      <point x="1394.0" y="722.0" type="qcurve" smooth="yes"/>
      <point x="1394.0" y="750.0" type="line" smooth="yes"/>
      <point x="1394.0" y="326.0"/>
      <point x="1036.0" y="-20.0"/>
      <point x="743.0" y="-20.0" type="qcurve" smooth="yes"/>
      <point x="450.0" y="-20.0"/>
      <point x="92.0" y="326.0"/>
    </contour>
    <contour>
      <point x="102.0" y="732.0" type="line" smooth="yes"/>
      <point x="102.0" y="331.0"/>
      <point x="451.0" y="-10.0"/>
      <point x="742.0" y="-10.0" type="qcurve" smooth="yes"/>
      <point x="1036.0" y="-10.0"/>
      <point x="1384.0" y="330.0"/>
      <point x="1384.0" y="734.0" type="qcurve" smooth="yes"/>
      <point x="1384.0" y="740.0" type="line" smooth="yes"/>
      <point x="1384.0" y="1122.0"/>
      <point x="1035.0" y="1467.0"/>
      <point x="743.0" y="1467.0" type="qcurve" smooth="yes"/>
      <point x="451.0" y="1467.0"/>
      <point x="102.0" y="1122.0"/>
      <point x="102.0" y="740.0" type="qcurve" smooth="yes"/>
    </contour>
    <contour>
      <point x="1346.0" y="-224.0" type="line"/>
      <point x="833.0" y="201.0" type="line"/>
      <point x="851.0" y="208.0" type="line"/>
      <point x="1369.0" y="-216.0" type="line"/>
    </contour>
  </outline>
</glyph>
<glyph name="R" format="2">
  <advance width="1214"/>
  <unicode hex="0052"/>
  <outline>
    <contour>
      <point x="150.0" y="0.0" type="line"/>
      <point x="150.0" y="1456.0" type="line"/>
      <point x="615.0" y="1456.0" type="line" smooth="yes"/>
      <point x="862.0" y="1456.0"/>
      <point x="1123.0" y="1239.0"/>
      <point x="1123.0" y="1065.0" type="qcurve" smooth="yes"/>
      <point x="1123.0" y="889.0"/>
      <point x="871.0" y="669.0"/>
      <point x="615.0" y="669.0" type="qcurve" smooth="yes"/>
      <point x="160.0" y="669.0" type="line"/>
      <point x="160.0" y="0.0" type="line"/>
    </contour>
    <contour>
      <point x="160.0" y="679.0" type="line"/>
      <point x="615.0" y="679.0" type="line" smooth="yes"/>
      <point x="873.854054054054" y="679.0"/>
      <point x="1113.0" y="897.0"/>
      <point x="1113.0" y="1065.0" type="qcurve" smooth="yes"/>
      <point x="1113.0" y="1234.0"/>
      <point x="864.854054054054" y="1446.0"/>
      <point x="615.0" y="1446.0" type="qcurve" smooth="yes"/>
      <point x="160.0" y="1446.0" type="line"/>
    </contour>
    <contour>
      <point x="1178.0" y="0.0" type="line"/>
      <point x="735.0" y="681.0" type="line"/>
      <point x="758.0" y="681.0" type="line"/>
      <point x="1206.0" y="0.0" type="line"/>
    </contour>
  </outline>
</glyph>
<glyph name="U" format="2">
  <advance width="1374"/>
  <unicode hex="0055"/>
  <anchor x="692.0" y="1432.0" name="top"/>
  <outline>
    <contour>
      <point x="140.0" y="495.0" type="qcurve" smooth="yes"/>
      <point x="140.0" y="1456.0" type="line"/>
      <point x="150.0" y="1456.0" type="line"/>
      <point x="150.0" y="486.0" type="line" smooth="yes"/>
      <point x="150.0" y="224.70238095238096"/>
      <point x="434.4630071599046" y="-11.0"/>
      <point x="689.0" y="-11.0" type="qcurve" smooth="yes"/>
      <point x="943.4224343675418" y="-11.0"/>
      <point x="1224.0" y="224.70238095238096"/>
      <point x="1224.0" y="486.0" type="qcurve" smooth="yes"/>
      <point x="1224.0" y="1456.0" type="line"/>
      <point x="1234.0" y="1456.0" type="line"/>
      <point x="1234.0" y="494.0" type="line" smooth="yes"/>
      <point x="1234.0" y="222.0"/>
      <point x="943.0" y="-20.0"/>
      <point x="687.0" y="-20.0" type="qcurve" smooth="yes"/>
      <point x="435.0" y="-20.0"/>
      <point x="140.0" y="222.0"/>
    </contour>
  </outline>
</glyph>
<glyph name="V" format="2">
  <advance width="1295"/>
  <unicode hex="0056"/>
  <outline>
    <contour>
      <point x="0.0" y="1456.0" type="line"/>
      <point x="16.0" y="1456.0" type="line"/>
      <point x="568.0" y="91.0" type="line" smooth="yes"/>
      <point x="583.0" y="63.0"/>
      <point x="629.0" y="-28.0"/>
      <point x="648.0" y="-69.0" type="qcurve"/>
      <point x="652.0" y="-69.0" type="line"/>
      <point x="670.0" y="-28.0"/>
      <point x="715.0" y="61.0"/>
      <point x="732.0" y="95.0" type="qcurve" smooth="yes"/>
      <point x="1281.0" y="1456.0" type="line"/>
      <point x="1295.0" y="1456.0" type="line"/>
      <point x="676.0" y="-9.0" type="line"/>
      <point x="623.0" y="-9.0" type="line"/>
    </contour>
  </outline>
</glyph>
<glyph name="W" format="2">
  <advance width="1989"/>
  <unicode hex="0057"/>
  <outline>
    <contour>
      <point x="540.0" y="-8.0" type="line"/>
      <point x="90.0" y="1456.0" type="line"/>
      <point x="110.0" y="1456.0" type="line"/>
      <point x="515.0" y="65.0" type="line" smooth="yes"/>
      <point x="521.0" y="50.0"/>
      <point x="531.0" y="10.0"/>
      <point x="538.0" y="-22.0" type="qcurve"/>
      <point x="542.0" y="-22.0" type="line"/>
      <point x="550.0" y="11.0"/>
      <point x="560.0" y="49.0"/>
      <point x="566.0" y="65.0" type="qcurve" smooth="yes"/>
      <point x="971.0" y="1456.0" type="line"/>
      <point x="1013.0" y="1456.0" type="line"/>
      <point x="1417.0" y="66.0" type="line" smooth="yes"/>
      <point x="1423.0" y="49.0"/>
      <point x="1432.0" y="10.0"/>
      <point x="1437.0" y="-22.0" type="qcurve"/>
      <point x="1442.0" y="-22.0" type="line"/>
      <point x="1448.0" y="11.0"/>
      <point x="1457.0" y="49.0"/>
      <point x="1463.0" y="68.0" type="qcurve" smooth="yes"/>
      <point x="1880.0" y="1456.0" type="line"/>
      <point x="1899.0" y="1456.0" type="line"/>
      <point x="1437.0" y="-9.0" type="line"/>
      <point x="1415.0" y="-9.0" type="line"/>
      <point x="1026.0" y="1382.0" type="line" smooth="yes"/>
      <point x="1020.0" y="1399.0"/>
      <point x="1000.0" y="1471.0"/>
      <point x="993.0" y="1505.0" type="qcurve"/>
      <point x="990.0" y="1505.0" type="line"/>
      <point x="983.0" y="1471.0"/>
      <point x="964.0" y="1400.0"/>
      <point x="958.0" y="1382.0" type="qcurve" smooth="yes"/>
      <point x="562.0" y="-8.0" type="line"/>
    </contour>
  </outline>
</glyph>
<glyph name="X" format="2">
  <advance width="1206"/>
  <unicode hex="0058"/>
  <outline>
    <contour>
      <point x="20.0" y="0.0" type="line"/>
      <point x="601.0" y="750.0" type="line"/>
      <point x="609.0" y="754.0" type="line"/>
      <point x="1118.0" y="1456.0" type="line"/>
      <point x="1159.0" y="1456.0" type="line"/>
      <point x="610.0" y="745.0" type="line"/>
      <point x="602.0" y="741.0" type="line"/>
      <point x="61.0" y="0.0" type="line"/>
    </contour>
    <contour>
      <point x="52.0" y="1456.0" type="line"/>
      <point x="97.0" y="1456.0" type="line"/>
      <point x="605.0" y="753.0" type="line"/>
      <point x="611.0" y="747.0" type="line"/>
      <point x="1186.0" y="0.0" type="line"/>
      <point x="1140.0" y="0.0" type="line"/>
      <point x="606.0" y="741.0" type="line"/>
      <point x="601.0" y="745.0" type="line"/>
    </contour>
  </outline>
</glyph>
<glyph name="Y" format="2">
  <advance width="1239"/>
  <unicode hex="0059"/>
  <anchor x="609.0" y="1432.0" name="top"/>
  <outline>
    <contour>
      <point x="615.0" y="0.0" type="line"/>
      <point x="615.0" y="607.0" type="line"/>
      <point x="24.0" y="1456.0" type="line"/>
      <point x="57.0" y="1456.0" type="line"/>
      <point x="574.0" y="656.0" type="line" smooth="yes"/>
      <point x="591.0" y="633.0"/>
      <point x="609.0" y="622.0"/>
      <point x="621.0" y="609.0" type="qcurve"/>
      <point x="621.0" y="609.0" type="line"/>
      <point x="633.0" y="622.0"/>
      <point x="649.0" y="632.0"/>
      <point x="666.0" y="656.0" type="qcurve" smooth="yes"/>
      <point x="1185.0" y="1456.0" type="line"/>
      <point x="1215.0" y="1456.0" type="line"/>
      <point x="625.0" y="607.0" type="line"/>
      <point x="625.0" y="0.0" type="line"/>
    </contour>
  </outline>
</glyph>
<glyph name="b" format="2">
  <advance width="1247"/>
  <unicode hex="0062"/>
  <outline>
    <contour>
      <point x="123.0" y="0.0" type="line"/>
      <point x="123.0" y="1458.0" type="line"/>
      <point x="133.0" y="1458.0" type="line"/>
      <point x="133.0" y="727.0" type="line"/>
      <point x="201.33515452340168" y="806.5508943623253"/>
      <point x="465.2411347517731" y="934.0"/>
      <point x="654.0" y="934.0" type="qcurve" smooth="yes"/>
      <point x="895.0" y="934.0"/>
      <point x="1187.0" y="689.0"/>
      <point x="1187.0" y="473.0" type="qcurve" smooth="yes"/>
      <point x="1187.0" y="458.0" type="line" smooth="yes"/>
      <point x="1187.0" y="233.0"/>
      <point x="894.0" y="-20.0"/>
      <point x="648.0" y="-20.0" type="qcurve" smooth="yes"/>
      <point x="457.51869158878503" y="-20.0"/>
      <point x="190.7247924506823" y="112.99981587763656"/>
      <point x="132.0" y="191.0" type="qcurve"/>
      <point x="137.0" y="191.0" type="line"/>
      <point x="134.0" y="0.0" type="line"/>
    </contour>
    <contour>
      <point x="133.0" y="208.0" type="line"/>
      <point x="191.5227689766918" y="119.7117067210184"/>
      <point x="449.30623306233065" y="-10.0"/>
      <point x="634.0" y="-10.0" type="qcurve" smooth="yes"/>
      <point x="892.2081218274111" y="-10.0"/>
      <point x="1177.0" y="235.0"/>
      <point x="1177.0" y="452.0" type="qcurve" smooth="yes"/>
      <point x="1177.0" y="479.0" type="line" smooth="yes"/>
      <point x="1177.0" y="683.0"/>
      <point x="896.2081218274111" y="923.0"/>
      <point x="641.0" y="923.0" type="qcurve" smooth="yes"/>
      <point x="455.30623306233065" y="923.0"/>
      <point x="191.43199548063922" y="796.1356287628931"/>
      <point x="133.0" y="712.0" type="qcurve"/>
    </contour>
  </outline>
</glyph>
<glyph name="d" format="2">
  <advance width="1247"/>
  <unicode hex="0064"/>
  <outline>
    <contour>
      <point x="60.0" y="458.0" type="qcurve" smooth="yes"/>
      <point x="60.0" y="474.0" type="line" smooth="yes"/>
      <point x="60.0" y="688.0"/>
      <point x="351.0" y="934.0"/>
      <point x="593.0" y="934.0" type="qcurve" smooth="yes"/>
      <point x="782.0" y="934.0"/>
      <point x="1046.0" y="807.0"/>
      <point x="1114.0" y="726.0" type="qcurve"/>
      <point x="1114.0" y="1458.0" type="line"/>
      <point x="1124.0" y="1458.0" type="line"/>
      <point x="1124.0" y="0.0" type="line"/>
      <point x="1113.0" y="0.0" type="line"/>
      <point x="1110.0" y="200.0" type="line"/>
      <point x="1114.0" y="200.0" type="line"/>
      <point x="1053.0" y="122.0"/>
      <point x="785.0" y="-10.0"/>
      <point x="599.0" y="-10.0" type="qcurve" smooth="yes"/>
      <point x="353.0" y="-10.0"/>
      <point x="60.0" y="241.0"/>
    </contour>
    <contour>
      <point x="70.0" y="451.0" type="line" smooth="yes"/>
      <point x="70.0" y="245.0"/>
      <point x="355.0" y="0.0"/>
      <point x="613.0" y="0.0" type="qcurve" smooth="yes"/>
      <point x="798.0" y="0.0"/>
      <point x="1055.0" y="130.0"/>
      <point x="1114.0" y="218.0" type="qcurve"/>
      <point x="1114.0" y="712.0" type="line"/>
      <point x="1056.0" y="796.0"/>
      <point x="792.0" y="923.0"/>
      <point x="606.0" y="923.0" type="qcurve" smooth="yes"/>
      <point x="351.0" y="923.0"/>
      <point x="70.0" y="683.0"/>
      <point x="70.0" y="479.0" type="qcurve" smooth="yes"/>
    </contour>
  </outline>
</glyph>
<glyph name="e" format="2">
  <advance width="1180"/>
  <unicode hex="0065"/>
  <anchor x="621.0" y="914.0" name="top"/>
  <outline>
    <contour>
      <point x="60.0" y="453.0" type="qcurve" smooth="yes"/>
      <point x="60.0" y="463.0" type="line" smooth="yes"/>
      <point x="60.0" y="681.0"/>
      <point x="361.0" y="934.0"/>
      <point x="622.0" y="934.0" type="qcurve" smooth="yes"/>
      <point x="878.0" y="934.0"/>
      <point x="1132.0" y="719.0"/>
      <point x="1132.0" y="569.0" type="qcurve" smooth="yes"/>
      <point x="1132.0" y="540.0" type="line"/>
      <point x="52.0" y="540.0" type="line"/>
      <point x="52.0" y="550.0" type="line"/>
      <point x="1124.0" y="550.0" type="line"/>
      <point x="1124.0" y="554.0" type="line" smooth="yes"/>
      <point x="1124.0" y="701.0"/>
      <point x="895.8371428571429" y="924.0"/>
      <point x="614.0" y="924.0" type="qcurve" smooth="yes"/>
      <point x="357.34447300771217" y="924.0"/>
      <point x="66.0" y="676.0"/>
      <point x="66.0" y="474.0" type="qcurve" smooth="yes"/>
      <point x="66.0" y="442.0" type="line" smooth="yes"/>
      <point x="66.0" y="240.0"/>
      <point x="359.6511627906975" y="-10.0"/>
      <point x="643.0" y="-10.0" type="qcurve" smooth="yes"/>
      <point x="815.2264631043256" y="-10.0"/>
      <point x="1055.0" y="88.0"/>
      <point x="1114.0" y="154.0" type="qcurve"/>
      <point x="1121.0" y="144.0" type="line"/>
      <point x="1066.0" y="82.0"/>
      <point x="823.0" y="-20.0"/>
      <point x="641.0" y="-20.0" type="qcurve" smooth="yes"/>
      <point x="364.0" y="-20.0"/>
      <point x="60.0" y="233.0"/>
    </contour>
  </outline>
</glyph>
<glyph name="g" format="2">
  <advance width="1247"/>
  <unicode hex="0067"/>
  <outline>
    <contour>
      <point x="117.0" y="-319.0" type="qcurve"/>
      <point x="110.0" y="-309.0" type="line"/>
      <point x="180.0" y="-360.0"/>
      <point x="436.0" y="-416.0"/>
      <point x="586.0" y="-416.0" type="qcurve" smooth="yes"/>
      <point x="835.0405063291139" y="-416.0"/>
      <point x="1114.0" y="-184.0"/>
      <point x="1114.0" y="30.0" type="qcurve" smooth="yes"/>
      <point x="1114.0" y="190.0" type="line"/>
      <point x="1051.0" y="111.0"/>
      <point x="790.0" y="-20.0"/>
      <point x="599.0" y="-20.0" type="qcurve" smooth="yes"/>
      <point x="353.0" y="-20.0"/>
      <point x="60.0" y="232.0"/>
      <point x="60.0" y="458.0" type="qcurve" smooth="yes"/>
      <point x="60.0" y="473.0" type="line" smooth="yes"/>
      <point x="60.0" y="688.0"/>
      <point x="351.0" y="934.0"/>
      <point x="593.0" y="934.0" type="qcurve" smooth="yes"/>
      <point x="781.0" y="934.0"/>
      <point x="1051.0" y="806.0"/>
      <point x="1114.0" y="726.0" type="qcurve"/>
      <point x="1110.0" y="726.0" type="line"/>
      <point x="1113.0" y="914.0" type="line"/>
      <point x="1124.0" y="914.0" type="line"/>
      <point x="1124.0" y="30.0" type="line" smooth="yes"/>
      <point x="1124.0" y="-199.0"/>
      <point x="835.0" y="-426.0"/>
      <point x="587.0" y="-426.0" type="qcurve" smooth="yes"/>
      <point x="438.0" y="-426.0"/>
      <point x="199.0" y="-367.0"/>
    </contour>
    <contour>
      <point x="70.0" y="451.0" type="line" smooth="yes"/>
      <point x="70.0" y="235.0"/>
      <point x="355.0" y="-10.0"/>
      <point x="613.0" y="-10.0" type="qcurve" smooth="yes"/>
      <point x="798.0" y="-10.0"/>
      <point x="1056.0" y="120.0"/>
      <point x="1114.0" y="208.0" type="qcurve"/>
      <point x="1114.0" y="712.0" type="line"/>
      <point x="1055.0" y="796.0"/>
      <point x="792.0" y="923.0"/>
      <point x="606.0" y="923.0" type="qcurve" smooth="yes"/>
      <point x="351.0" y="923.0"/>
      <point x="70.0" y="683.0"/>
      <point x="70.0" y="479.0" type="qcurve" smooth="yes"/>
    </contour>
  </outline>
</glyph>
<glyph name="h" format="2">
  <advance width="1215"/>
  <unicode hex="0068"/>
  <outline>
    <contour>
      <point x="123.0" y="0.0" type="line"/>
      <point x="123.0" y="1454.0" type="line"/>
      <point x="133.0" y="1454.0" type="line"/>
      <point x="133.0" y="670.0" type="line"/>
      <point x="216.0" y="789.0"/>
      <point x="471.0" y="934.0"/>
      <point x="659.0" y="934.0" type="qcurve" smooth="yes"/>
      <point x="871.0" y="934.0"/>
      <point x="1102.0" y="758.0"/>
      <point x="1102.0" y="560.0" type="qcurve" smooth="yes"/>
      <point x="1102.0" y="0.0" type="line"/>
      <point x="1091.0" y="0.0" type="line"/>
      <point x="1091.0" y="556.0" type="line" smooth="yes"/>
      <point x="1091.0" y="750.0"/>
      <point x="860.0" y="924.0"/>
      <point x="652.0" y="924.0" type="qcurve" smooth="yes"/>
      <point x="468.0" y="924.0"/>
      <point x="210.0" y="768.0"/>
      <point x="133.0" y="664.0" type="qcurve"/>
      <point x="133.0" y="0.0" type="line"/>
    </contour>
  </outline>
</glyph>
<glyph name="j" format="2">
  <advance width="278"/>
  <unicode hex="006A"/>
  <outline>
    <contour>
      <point x="-223.0" y="-418.0" type="qcurve"/>
      <point x="-223.0" y="-406.0" type="line"/>
      <point x="-202.0" y="-413.0"/>
      <point x="-128.0" y="-426.0"/>
      <point x="-88.00000000000001" y="-426.0" type="qcurve" smooth="yes"/>
      <point x="27.0" y="-426.0"/>
      <point x="146.0" y="-312.0"/>
      <point x="146.0" y="-200.0" type="qcurve" smooth="yes"/>
      <point x="146.0" y="914.0" type="line"/>
      <point x="156.0" y="914.0" type="line"/>
      <point x="156.0" y="-210.0" type="line" smooth="yes"/>
      <point x="156.0" y="-319.0"/>
      <point x="23.0" y="-436.0"/>
      <point x="-104.0" y="-436.0" type="qcurve" smooth="yes"/>
      <point x="-151.0" y="-436.0"/>
      <point x="-206.25295481591314" y="-421.8742178428465"/>
    </contour>
    <contour>
      <point x="138.0" y="1262.0" type="qcurve" smooth="yes"/>
      <point x="138.0" y="1268.0"/>
      <point x="146.0" y="1276.0"/>
      <point x="153.0" y="1276.0" type="qcurve" smooth="yes"/>
      <point x="160.0" y="1276.0"/>
      <point x="167.0" y="1268.0"/>
      <point x="167.0" y="1262.0" type="qcurve" smooth="yes"/>
      <point x="167.0" y="1255.0"/>
      <point x="159.0" y="1247.0"/>
      <point x="152.0" y="1247.0" type="qcurve" smooth="yes"/>
      <point x="145.0" y="1247.0"/>
      <point x="138.0" y="1255.0"/>
    </contour>
  </outline>
</glyph>
<glyph name="k" format="2">
  <advance width="1109"/>
  <unicode hex="006B"/>
  <outline>
    <contour>
      <point x="123.0" y="0.0" type="line"/>
      <point x="123.0" y="1458.0" type="line"/>
      <point x="133.0" y="1458.0" type="line"/>
      <point x="133.0" y="344.0" type="line"/>
      <point x="886.0" y="914.0" type="line"/>
      <point x="1011.0" y="914.0" type="line"/>
      <point x="133.0" y="320.0" type="line"/>
      <point x="133.0" y="0.0" type="line"/>
    </contour>
    <contour>
      <point x="1003.0" y="0.0" type="line"/>
      <point x="442.0" y="605.0" type="line"/>
      <point x="489.0" y="601.0" type="line"/>
      <point x="1083.0" y="0.0" type="line"/>
    </contour>
  </outline>
</glyph>
<glyph name="m" format="2">
  <advance width="2032"/>
  <unicode hex="006D"/>
  <outline>
    <contour>
      <point x="123.0" y="0.0" type="line"/>
      <point x="123.0" y="914.0" type="line"/>
      <point x="134.0" y="914.0" type="line"/>
      <point x="137.0" y="678.0" type="line"/>
      <point x="132.0" y="678.0" type="line"/>
      <point x="212.0" y="807.0"/>
      <point x="452.0" y="935.0"/>
      <point x="630.0" y="934.0" type="qcurve" smooth="yes"/>
      <point x="783.0" y="933.0"/>
      <point x="987.0" y="805.0"/>
      <point x="1008.0" y="700.0" type="qcurve"/>
      <point x="1005.0" y="700.0" type="line"/>
      <point x="1060.3860968363813" y="788.1487581358491"/>
      <point x="1321.2222222222222" y="934.0"/>
      <point x="1503.0" y="934.0" type="qcurve" smooth="yes"/>
      <point x="1683.1379310344828" y="934.0"/>
      <point x="1919.0" y="749.0"/>
      <point x="1919.0" y="561.0" type="qcurve" smooth="yes"/>
      <point x="1919.0" y="0.0" type="line"/>
      <point x="1909.0" y="0.0" type="line"/>
      <point x="1909.0" y="556.0" type="line" smooth="yes"/>
      <point x="1906.0" y="743.0"/>
      <point x="1682.0" y="924.0"/>
      <point x="1494.0" y="924.0" type="qcurve" smooth="yes"/>
      <point x="1319.0" y="924.0"/>
      <point x="1079.0" y="761.0"/>
      <point x="1026.0" y="663.0" type="qcurve"/>
      <point x="1026.0" y="0.0" type="line"/>
      <point x="1016.0" y="0.0" type="line"/>
      <point x="1016.0" y="604.0" type="line" smooth="yes"/>
      <point x="1013.0" y="761.0"/>
      <point x="793.0" y="924.0"/>
      <point x="611.0" y="924.0" type="qcurve" smooth="yes"/>
      <point x="438.0" y="924.0"/>
      <point x="207.0" y="781.0"/>
      <point x="133.0" y="663.0" type="qcurve"/>
      <point x="133.0" y="0.0" type="line"/>
    </contour>
  </outline>
</glyph>
<glyph name="n" format="2">
  <advance width="1215"/>
  <unicode hex="006E"/>
  <anchor x="688.0" y="914.0" name="top"/>
  <outline>
    <contour>
      <point x="123.0" y="0.0" type="line"/>
      <point x="123.0" y="914.0" type="line"/>
      <point x="134.0" y="914.0" type="line"/>
      <point x="137.0" y="675.0" type="line"/>
      <point x="132.0" y="675.0" type="line"/>
      <point x="214.0" y="790.0"/>
      <point x="481.1487414187643" y="934.0"/>
      <point x="671.0" y="934.0" type="qcurve" smooth="yes"/>
      <point x="871.0" y="934.0"/>
      <point x="1102.0" y="757.9440203562342"/>
      <point x="1102.0" y="560.0" type="qcurve" smooth="yes"/>
      <point x="1102.0" y="0.0" type="line"/>
      <point x="1091.0" y="0.0" type="line"/>
      <point x="1091.0" y="556.0" type="line" smooth="yes"/>
      <point x="1091.0" y="749.6170212765958"/>
      <point x="860.0237288135593" y="924.0"/>
      <point x="652.0" y="924.0" type="qcurve" smooth="yes"/>
      <point x="468.35474860335194" y="924.0"/>
      <point x="209.7125991964753" y="768.1949188166273"/>
      <point x="133.0" y="664.0" type="qcurve"/>
      <point x="133.0" y="0.0" type="line"/>
    </contour>
  </outline>
</glyph>
<glyph name="p" format="2">
  <advance width="1247"/>
  <unicode hex="0070"/>
  <outline>
    <contour>
      <point x="123.0" y="-444.0" type="line"/>
      <point x="123.0" y="914.0" type="line"/>
      <point x="134.0" y="914.0" type="line"/>
      <point x="137.0" y="728.0" type="line"/>
      <point x="133.0" y="728.0" type="line"/>
      <point x="196.0" y="806.0"/>
      <point x="466.0" y="934.0"/>
      <point x="654.0" y="934.0" type="qcurve" smooth="yes"/>
      <point x="895.0" y="934.0"/>
      <point x="1187.0" y="689.0"/>
      <point x="1187.0" y="473.0" type="qcurve" smooth="yes"/>
      <point x="1187.0" y="458.0" type="line" smooth="yes"/>
      <point x="1187.0" y="233.0"/>
      <point x="895.0" y="-20.0"/>
      <point x="647.0" y="-20.0" type="qcurve" smooth="yes"/>
      <point x="458.0" y="-20.0"/>
      <point x="196.0" y="111.0"/>
      <point x="133.0" y="190.0" type="qcurve"/>
      <point x="133.0" y="-444.0" type="line"/>
    </contour>
    <contour>
      <point x="133.0" y="208.0" type="line"/>
      <point x="191.0" y="120.0"/>
      <point x="448.0" y="-10.0"/>
      <point x="634.0" y="-10.0" type="qcurve" smooth="yes"/>
      <point x="892.0" y="-10.0"/>
      <point x="1177.0" y="236.0"/>
      <point x="1177.0" y="452.0" type="qcurve" smooth="yes"/>
      <point x="1177.0" y="479.0" type="line" smooth="yes"/>
      <point x="1177.0" y="683.0"/>
      <point x="896.0" y="923.0"/>
      <point x="641.0" y="923.0" type="qcurve" smooth="yes"/>
      <point x="455.0" y="923.0"/>
      <point x="192.0" y="796.0"/>
      <point x="133.0" y="712.0" type="qcurve"/>
    </contour>
  </outline>
</glyph>
<glyph name="q" format="2">
  <advance width="1247"/>
  <unicode hex="0071"/>
  <outline>
    <contour>
      <point x="60.0" y="458.0" type="qcurve" smooth="yes"/>
      <point x="60.0" y="474.0" type="line" smooth="yes"/>
      <point x="60.0" y="688.0"/>
      <point x="351.0" y="934.0"/>
      <point x="593.0" y="934.0" type="qcurve" smooth="yes"/>
      <point x="781.0" y="934.0"/>
      <point x="1051.0" y="806.0"/>
      <point x="1115.0" y="726.0" type="qcurve"/>
      <point x="1110.0" y="726.0" type="line"/>
      <point x="1113.0" y="914.0" type="line"/>
      <point x="1124.0" y="914.0" type="line"/>
      <point x="1124.0" y="-444.0" type="line"/>
      <point x="1114.0" y="-444.0" type="line"/>
      <point x="1114.0" y="200.0" type="line"/>
      <point x="1114.0" y="200.0" type="line"/>
      <point x="1049.0" y="121.0"/>
      <point x="786.0" y="-10.0"/>
      <point x="599.0" y="-10.0" type="qcurve" smooth="yes"/>
      <point x="353.0" y="-10.0"/>
      <point x="60.0" y="241.0"/>
    </contour>
    <contour>
      <point x="70.0" y="451.0" type="line" smooth="yes"/>
      <point x="70.0" y="245.0"/>
      <point x="355.0" y="0.0"/>
      <point x="613.0" y="0.0" type="qcurve" smooth="yes"/>
      <point x="798.0" y="0.0"/>
      <point x="1056.0" y="130.0"/>
      <point x="1114.0" y="218.0" type="qcurve"/>
      <point x="1114.0" y="712.0" type="line"/>
      <point x="1055.0" y="796.0"/>
      <point x="792.0" y="923.0"/>
      <point x="606.0" y="923.0" type="qcurve" smooth="yes"/>
      <point x="351.0" y="923.0"/>
      <point x="70.0" y="683.0"/>
      <point x="70.0" y="479.0" type="qcurve" smooth="yes"/>
    </contour>
  </outline>
</glyph>
<glyph name="r" format="2">
  <advance width="731"/>
  <unicode hex="0072"/>
  <outline>
    <contour>
      <point x="123.0" y="0.0" type="line"/>
      <point x="123.0" y="914.0" type="line"/>
      <point x="134.0" y="914.0" type="line"/>
      <point x="137.0" y="700.0" type="line"/>
      <point x="133.0" y="700.0" type="line"/>
      <point x="197.43406148957297" y="793.3244545820634"/>
      <point x="431.84419263456084" y="934.0"/>
      <point x="580.0" y="934.0" type="qcurve" smooth="yes"/>
      <point x="623.0" y="934.0"/>
      <point x="697.0" y="922.0"/>
      <point x="712.0" y="917.0" type="qcurve"/>
      <point x="712.0" y="907.0" type="line"/>
      <point x="690.0" y="912.0"/>
      <point x="618.0" y="924.0"/>
      <point x="577.0" y="924.0" type="qcurve" smooth="yes"/>
      <point x="431.4" y="924.0"/>
      <point x="196.84104246757022" y="789.4938870372139"/>
      <point x="134.0" y="682.0" type="qcurve"/>
      <point x="134.0" y="0.0" type="line"/>
    </contour>
  </outline>
</glyph>
<glyph name="v" format="2">
  <advance width="1108"/>
  <unicode hex="0076"/>
  <outline>
    <contour>
      <point x="18.0" y="914.0" type="line"/>
      <point x="50.0" y="914.0" type="line"/>
      <point x="506.0" y="17.0" type="line" smooth="yes"/>
      <point x="514.0" y="11.0"/>
      <point x="539.0" y="-2.0"/>
      <point x="555.0" y="-11.0" type="qcurve"/>
      <point x="555.0" y="-11.0" type="line"/>
      <point x="571.0" y="-2.0"/>
      <point x="597.0" y="12.0"/>
      <point x="604.0" y="17.0" type="qcurve" smooth="yes"/>
      <point x="1060.0" y="914.0" type="line"/>
      <point x="1090.0" y="914.0" type="line"/>
      <point x="567.0" y="0.0" type="line"/>
      <point x="541.0" y="0.0" type="line"/>
    </contour>
  </outline>
</glyph>
<glyph name="w" format="2">
  <advance width="1764"/>
  <unicode hex="0077"/>
  <outline>
    <contour>
      <point x="24.0" y="914.0" type="line"/>
      <point x="51.0" y="914.0" type="line"/>
      <point x="416.0" y="16.0" type="line" smooth="yes"/>
      <point x="425.0" y="4.0"/>
      <point x="435.0" y="-6.0"/>
      <point x="443.0" y="-11.0" type="qcurve"/>
      <point x="446.0" y="-11.0" type="line"/>
      <point x="455.0" y="-6.0"/>
      <point x="468.0" y="3.0"/>
      <point x="477.0" y="16.0" type="qcurve" smooth="yes"/>
      <point x="863.0" y="914.0" type="line"/>
      <point x="905.0" y="914.0" type="line"/>
      <point x="1293.0" y="14.0" type="line" smooth="yes"/>
      <point x="1301.0" y="5.0"/>
      <point x="1315.0" y="-7.0"/>
      <point x="1323.0" y="-9.0" type="qcurve"/>
      <point x="1328.0" y="-9.0" type="line"/>
      <point x="1335.0" y="-7.0"/>
      <point x="1345.0" y="5.0"/>
      <point x="1353.0" y="14.0" type="qcurve" smooth="yes"/>
      <point x="1717.0" y="914.0" type="line"/>
      <point x="1740.0" y="914.0" type="line"/>
      <point x="1345.0" y="0.0" type="line"/>
      <point x="1299.0" y="0.0" type="line"/>
      <point x="939.0" y="820.0" type="line" smooth="yes"/>
      <point x="924.0" y="847.0"/>
      <point x="897.0" y="896.0"/>
      <point x="883.0" y="924.0" type="qcurve"/>
      <point x="880.0" y="924.0" type="line"/>
      <point x="866.0" y="895.0"/>
      <point x="839.0" y="847.0"/>
      <point x="824.0" y="820.0" type="qcurve" smooth="yes"/>
      <point x="466.0" y="0.0" type="line"/>
      <point x="422.0" y="0.0" type="line"/>
    </contour>
  </outline>
</glyph>
<glyph name="x" format="2">
  <advance width="1018"/>
  <unicode hex="0078"/>
  <outline>
    <contour>
      <point x="24.0" y="0.0" type="line"/>
      <point x="494.0" y="474.0" type="line"/>
      <point x="508.0" y="474.0" type="line"/>
      <point x="934.0" y="914.0" type="line"/>
      <point x="974.0" y="914.0" type="line"/>
      <point x="514.0" y="463.0" type="line"/>
      <point x="500.0" y="463.0" type="line"/>
      <point x="65.0" y="0.0" type="line"/>
    </contour>
    <contour>
      <point x="51.0" y="914.0" type="line"/>
      <point x="93.0" y="914.0" type="line"/>
      <point x="506.0" y="473.0" type="line"/>
      <point x="528.0" y="473.0" type="line"/>
      <point x="995.0" y="0.0" type="line"/>
      <point x="953.0" y="0.0" type="line"/>
      <point x="531.0" y="464.0" type="line"/>
      <point x="509.0" y="464.0" type="line"/>
    </contour>
  </outline>
</glyph>
<glyph name="y" format="2">
  <advance width="1108"/>
  <unicode hex="0079"/>
  <anchor x="562.0" y="914.0" name="top"/>
  <outline>
    <contour>
      <point x="42.0" y="-418.0" type="qcurve"/>
      <point x="42.0" y="-404.0" type="line"/>
      <point x="61.0" y="-409.0"/>
      <point x="137.0" y="-426.0"/>
      <point x="174.0" y="-426.0" type="qcurve" smooth="yes"/>
      <point x="269.1698113207547" y="-426.0"/>
      <point x="411.0" y="-261.0"/>
      <point x="545.0" y="2.0" type="qcurve"/>
      <point x="546.0" y="5.0" type="line"/>
      <point x="20.0" y="914.0" type="line"/>
      <point x="49.0" y="914.0" type="line"/>
      <point x="474.0" y="96.0" type="line" smooth="yes"/>
      <point x="493.0" y="65.0"/>
      <point x="524.0" y="38.0"/>
      <point x="554.0" y="-5.0" type="qcurve"/>
      <point x="553.0" y="-5.0" type="line"/>
      <point x="581.0" y="35.0"/>
      <point x="612.0" y="65.0"/>
      <point x="631.0" y="97.0" type="qcurve" smooth="yes"/>
      <point x="1069.0" y="914.0" type="line"/>
      <point x="1100.0" y="914.0" type="line"/>
      <point x="505.0" y="-88.0" type="line" smooth="yes"/>
      <point x="423.0" y="-236.0"/>
      <point x="274.48903508771923" y="-436.0"/>
      <point x="177.0" y="-436.0" type="qcurve" smooth="yes"/>
      <point x="131.0" y="-436.0"/>
      <point x="63.0" y="-423.0"/>
    </contour>
  </outline>
</glyph>
<glyph name="foursuperior" format="2">
  <advance width="538"/>
  <unicode hex="2074"/>
  <outline>
    <contour>
      <point x="21.0" y="940.0" type="line"/>
      <point x="16.0" y="952.0" type="line"/>
      <point x="372.0" y="1490.0" type="line"/>
      <point x="384.0" y="1490.0" type="line"/>
      <point x="234.0" y="1263.0" type="line"/>
      <point x="26.0" y="950.0" type="line"/>
      <point x="530.0" y="950.0" type="line"/>
      <point x="530.0" y="940.0" type="line"/>
    </contour>
    <contour>
      <point x="392.0" y="1496.0" type="line"/>
      <point x="392.0" y="697.0" type="line"/>
      <point x="383.0" y="697.0" type="line"/>
      <point x="383.0" y="1496.0" type="line"/>
    </contour>
  </outline>
</glyph>
